<?xml version="1.0" encoding="utf-8"?>
<!-- Generator: Adobe Illustrator 24.1.2, SVG Export Plug-In . SVG Version: 6.00 Build 0)  -->
<svg version="1.1" id="Layer_1" xmlns="http://www.w3.org/2000/svg" xmlns:xlink="http://www.w3.org/1999/xlink" x="0px" y="0px"
	 viewBox="0 0 411.3 409.1" style="enable-background:new 0 0 411.3 409.1;" xml:space="preserve">
<g>
	<rect x="170.8" y="182.7" transform="matrix(0.7071 -0.7071 0.7071 0.7071 -71.7706 211.7164)" width="97.8" height="19.5"/>
	<polygon points="328.1,133 308.5,133 308.5,103.6 279.2,103.6 279.2,84.1 308.5,84.1 308.5,54.7 164.3,54.7 164.3,84.1 174.1,84.1 
		174.1,93.9 203.4,93.9 203.4,113.4 174.1,113.4 174.1,123.2 164.3,123.2 164.3,152.5 144.7,152.5 144.7,123.2 135,123.2 135,113.4 
		105.6,113.4 105.6,93.9 135,93.9 135,84.1 144.7,84.1 144.7,54.7 56.2,54.7 56.2,314.5 247.3,123.4 288.8,164.8 97.7,356 
		357.4,356 357.4,233.1 337.9,233.1 337.9,252.6 318.3,252.6 318.3,233.1 298.8,233.1 298.8,213.5 318.3,213.5 318.3,194 337.9,194 
		337.9,213.5 357.4,213.5 357.4,103.6 328.1,103.6 	"/>
	<polygon points="188.8,387.2 34,387.2 34,377.7 25,377.7 25,33 34,33 34,23.6 188.8,23.6 188.8,33 212.6,33 212.6,9.2 188.8,9.2 
		188.8,18.6 34,18.6 34,9.2 10.2,9.2 10.2,33 20,33 20,377.7 10.2,377.7 10.2,401.6 34,401.6 34,392.1 188.8,392.1 188.8,401.6 
		212.6,401.6 212.6,377.7 188.8,377.7 	"/>
	<rect x="383.7" y="85.4" width="13.2" height="53"/>
	<rect x="273" y="14.5" width="53" height="13.2"/>
	<rect x="273" y="383" width="53" height="13.2"/>
	<rect x="383.7" y="178.8" width="13.2" height="53"/>
	<rect x="383.7" y="272.2" width="13.2" height="53"/>
	<polygon points="366.4,27.7 383.7,27.7 383.7,45.1 396.9,45.1 396.9,14.5 366.4,14.5 	"/>
	<polygon points="383.7,382.9 366.4,382.9 366.4,396.1 396.9,396.1 396.9,365.6 383.7,365.6 	"/>
</g>
</svg>
